<svg xmlns="http://www.w3.org/2000/svg" viewBox="0 0 96.98 14.5"><defs><style>.cls-1{fill:#2dadc6;}.cls-2{fill:#fff;fill-rule:evenodd;}</style></defs><g id="Layer_2" data-name="Layer 2"><g id="Layer_1-2" data-name="Layer 1"><circle class="cls-1" cx="89.73" cy="7.25" r="7.25"/><path class="cls-2" d="M4.31,12.48c2.2,0,4.12-1.1,4.12-3.56A2.88,2.88,0,0,0,6.5,6V6A2.94,2.94,0,0,0,7.94,3.37c0-2-1.53-3.16-3.69-3.16H0V12.48Zm0-7.26H2.17V2.13H4.23A1.4,1.4,0,0,1,5.74,3.65,1.45,1.45,0,0,1,4.26,5.22Zm.22,5.34H2.17V7H4.48A1.64,1.64,0,0,1,6.21,8.78,1.64,1.64,0,0,1,4.48,10.56Zm8.48,2c.29,0,.52,0,.67-.05V10.6h-.32c-.55,0-.87-.24-.87-1.21V.21H10.32V9.73C10.32,12.26,11.78,12.57,13,12.57Zm5.1.12a3.34,3.34,0,0,0,3-1.85h0a3.84,3.84,0,0,0-.05.6v1h2.05V3.66H21V7.71c0,1.57-.85,3-2.4,3-1.06,0-1.33-.72-1.33-1.79V3.66H15.09V9.33C15.09,11.74,16.22,12.69,18.06,12.69Zm11.4,0a5.33,5.33,0,0,0,3.44-1.26l-.83-1.58a4,4,0,0,1-2.46,1,2.44,2.44,0,0,1-2.56-2.33h5.89A8.12,8.12,0,0,0,33,7.64c0-2.33-1.35-4.18-3.8-4.18a4.3,4.3,0,0,0-4.36,4.61A4.47,4.47,0,0,0,29.46,12.69ZM30.87,7H27.1a2.07,2.07,0,0,1,2.06-1.86A1.7,1.7,0,0,1,30.87,7Zm9.67,5.71A6.13,6.13,0,0,0,46.7,6.26a6.16,6.16,0,1,0-12.32,0A6.13,6.13,0,0,0,40.54,12.69Zm0-2c-2.28,0-3.93-1.9-3.93-4.39a3.94,3.94,0,1,1,7.86,0C44.47,8.75,42.83,10.65,40.54,10.65Zm12.17,2a4.85,4.85,0,0,0,3.53-1.44L55.42,9.7a3.78,3.78,0,0,1-2.52,1.12,2.63,2.63,0,0,1-2.67-2.76,2.59,2.59,0,0,1,2.6-2.74,3.2,3.2,0,0,1,2.22,1l1-1.51a4.7,4.7,0,0,0-7.95,3.3A4.47,4.47,0,0,0,52.71,12.69Zm9.17,0a5.33,5.33,0,0,0,3.44-1.26l-.84-1.58a4,4,0,0,1-2.45,1,2.45,2.45,0,0,1-2.57-2.33h5.9a8.09,8.09,0,0,0,.06-.85c0-2.33-1.34-4.18-3.79-4.18a4.3,4.3,0,0,0-4.37,4.61A4.47,4.47,0,0,0,61.88,12.69ZM63.29,7H59.51a2.08,2.08,0,0,1,2.07-1.86A1.71,1.71,0,0,1,63.29,7Zm6.08,5.71a3.12,3.12,0,0,0,2.7-1.59h0a4,4,0,0,0,0,.64v.74h2V7a3.23,3.23,0,0,0-3.56-3.51,5.73,5.73,0,0,0-3.36,1.09l.79,1.57a4.33,4.33,0,0,1,2.38-.85A1.42,1.42,0,0,1,71.9,6.83V7h-.37c-1.89,0-5,.45-5,3.09A2.65,2.65,0,0,0,69.37,12.69ZM70,11a1.18,1.18,0,0,1-1.3-1.15c0-1.25,1.82-1.41,2.89-1.41h.37V8.7A2.21,2.21,0,0,1,70,11Zm8.39,1.47V8.35a2.61,2.61,0,0,1,2.47-2.89c1.07,0,1.34.73,1.34,1.8v5.22h2.13V6.81c0-2.33-1.09-3.35-3-3.35a3.31,3.31,0,0,0-3,1.86h0a4.7,4.7,0,0,0,0-.62v-1h-2v8.82Z"/></g></g></svg>